# xmcd
#
# Track frame offsets: 
#        150
#        4246
#        24579
#        31548
#        50009
#        68095
#
# Disc length: 1757 seconds
#
# Revision: 1
# Processed by: cddbd v1.5.2PL0 Copyright (c) Steve Scherf et al.
# Submitted via: ExactAudioCopy v1.0b1
#
DISCID=4106db06
DTITLE=Hank Williams - Hank Williams The Complete Mothers's Best Recor
DTITLE=dings.....Plus CD 15
DYEAR=2010
DGENRE=Country
TTITLE0=Introduction
TTITLE1=Why Don’t You Love Me?
TTITLE2=Owen Bradley and his Orchestra: San Antonio Rose
TTITLE3=The Beasley Sisters: Honey, Be My Honey Bee
TTITLE4=Cold, Cold Heart
TTITLE5=Stars in Her Eyes: anti-Venereal Disease play
EXTD=
EXTT0=
EXTT1=
EXTT2=
EXTT3=
EXTT4=
EXTT5=
PLAYORDER=
